<mxfile host="app.diagrams.net" modified="2023-02-19T07:31:02.133Z" agent="5.0 (Windows NT 10.0; WOW64) AppleWebKit/537.36 (KHTML, like Gecko) Chrome/102.0.0.0 Safari/537.36" etag="-GlheynjAs__wvz7Ah_u" version="20.7.4" type="github">
  <diagram name="Page-1" id="edf60f1a-56cd-e834-aa8a-f176f3a09ee4">
    <mxGraphModel dx="1500" dy="784" grid="1" gridSize="10" guides="1" tooltips="1" connect="1" arrows="1" fold="1" page="1" pageScale="1" pageWidth="1100" pageHeight="850" background="none" math="0" shadow="0">
      <root>
        <mxCell id="0" />
        <mxCell id="1" parent="0" />
        <mxCell id="60e70716793133e9-33" value="&lt;font color=&quot;#33ff33&quot; style=&quot;font-size: 14px;&quot; face=&quot;Garamond&quot;&gt;Yes&lt;/font&gt;" style="edgeStyle=orthogonalEdgeStyle;rounded=0;html=1;labelBackgroundColor=none;startSize=5;endArrow=classicThin;endFill=1;endSize=5;jettySize=auto;orthogonalLoop=1;strokeWidth=1;fontFamily=Verdana;fontSize=8;entryX=0;entryY=0.5;entryDx=0;entryDy=0;" parent="1" source="60e70716793133e9-5" target="60e70716793133e9-10" edge="1">
          <mxGeometry x="-0.7778" y="10" relative="1" as="geometry">
            <mxPoint as="offset" />
            <mxPoint x="340" y="250" as="targetPoint" />
          </mxGeometry>
        </mxCell>
        <mxCell id="60e70716793133e9-37" value="&lt;font color=&quot;#ff0000&quot; style=&quot;font-size: 14px;&quot; face=&quot;Garamond&quot;&gt;No&lt;/font&gt;" style="edgeStyle=orthogonalEdgeStyle;rounded=0;html=1;labelBackgroundColor=none;startSize=5;endArrow=classicThin;endFill=1;endSize=5;jettySize=auto;orthogonalLoop=1;strokeWidth=1;fontFamily=Verdana;fontSize=8;entryX=0.5;entryY=0;entryDx=0;entryDy=0;exitX=0.5;exitY=1;exitDx=0;exitDy=0;" parent="1" source="60e70716793133e9-5" target="60e70716793133e9-9" edge="1">
          <mxGeometry y="15" relative="1" as="geometry">
            <mxPoint as="offset" />
            <Array as="points">
              <mxPoint x="145" y="290" />
              <mxPoint x="145" y="290" />
            </Array>
          </mxGeometry>
        </mxCell>
        <mxCell id="60e70716793133e9-5" value="&lt;span style=&quot;border-color: var(--border-color); color: rgb(71, 77, 102); font-size: 14px;&quot;&gt;&lt;font face=&quot;Times New Roman&quot;&gt;Có xe đang check-in.&lt;/font&gt;&lt;/span&gt;" style="rhombus;whiteSpace=wrap;html=1;rounded=0;shadow=1;labelBackgroundColor=none;strokeWidth=1;fontFamily=Verdana;fontSize=8;align=center;" parent="1" vertex="1">
          <mxGeometry x="60" y="180" width="170" height="80" as="geometry" />
        </mxCell>
        <mxCell id="60e70716793133e9-38" style="edgeStyle=orthogonalEdgeStyle;rounded=0;html=1;labelBackgroundColor=none;startSize=5;endArrow=classicThin;endFill=1;endSize=5;jettySize=auto;orthogonalLoop=1;strokeWidth=1;fontFamily=Verdana;fontSize=8;entryX=0.5;entryY=0;entryDx=0;entryDy=0;" parent="1" source="60e70716793133e9-9" target="VhMm4jI5atdPhifG3HGS-7" edge="1">
          <mxGeometry relative="1" as="geometry">
            <mxPoint x="145.0000000000001" y="420" as="targetPoint" />
          </mxGeometry>
        </mxCell>
        <mxCell id="60e70716793133e9-9" value="&lt;font face=&quot;Times New Roman&quot;&gt;&lt;span style=&quot;color: rgb(71, 77, 102); font-size: 14px; background-color: rgb(244, 246, 250);&quot;&gt;Barrier đầu mở.&lt;/span&gt;&lt;br style=&quot;color: rgb(71, 77, 102); font-size: 14px; background-color: rgb(244, 246, 250);&quot;&gt;&lt;span style=&quot;color: rgb(71, 77, 102); font-size: 14px; background-color: rgb(244, 246, 250);&quot;&gt;Xe tiến vào vị trí check-in.&lt;/span&gt;&lt;/font&gt;" style="whiteSpace=wrap;html=1;rounded=0;shadow=1;labelBackgroundColor=none;strokeWidth=1;fontFamily=Verdana;fontSize=8;align=center;" parent="1" vertex="1">
          <mxGeometry x="60" y="330" width="170" height="40" as="geometry" />
        </mxCell>
        <mxCell id="VhMm4jI5atdPhifG3HGS-3" style="edgeStyle=orthogonalEdgeStyle;rounded=0;orthogonalLoop=1;jettySize=auto;html=1;fontFamily=Garamond;fontSize=14;fontColor=#33FF33;exitX=0.5;exitY=0;exitDx=0;exitDy=0;" edge="1" parent="1" source="60e70716793133e9-10">
          <mxGeometry relative="1" as="geometry">
            <mxPoint x="150" y="160" as="targetPoint" />
            <Array as="points">
              <mxPoint x="380" y="160" />
            </Array>
          </mxGeometry>
        </mxCell>
        <mxCell id="60e70716793133e9-10" value="&lt;font face=&quot;Times New Roman&quot;&gt;&lt;span style=&quot;color: rgb(71, 77, 102); font-size: 14px; background-color: rgb(244, 246, 250);&quot;&gt;Barrier đầu đóng lại.&lt;/span&gt;&lt;br style=&quot;color: rgb(71, 77, 102); font-size: 14px; background-color: rgb(244, 246, 250);&quot;&gt;&lt;span style=&quot;color: rgb(71, 77, 102); font-size: 14px; background-color: rgb(244, 246, 250);&quot;&gt;Xe dừng đợi&lt;/span&gt;&lt;/font&gt;" style="whiteSpace=wrap;html=1;rounded=0;shadow=1;labelBackgroundColor=none;strokeWidth=1;fontFamily=Verdana;fontSize=8;align=center;" parent="1" vertex="1">
          <mxGeometry x="280" y="182.5" width="160" height="75" as="geometry" />
        </mxCell>
        <mxCell id="60e70716793133e9-16" value="&lt;font style=&quot;font-size: 14px;&quot; face=&quot;Times New Roman&quot;&gt;Barrier vào bãi xe mở.&lt;br&gt;Xe tiến vào bãi&lt;/font&gt;." style="whiteSpace=wrap;html=1;rounded=0;shadow=1;labelBackgroundColor=none;strokeWidth=1;fontFamily=Verdana;fontSize=8;align=center;fillColor=#ffe6cc;strokeColor=#d79b00;" parent="1" vertex="1">
          <mxGeometry x="40" y="550" width="210" height="60" as="geometry" />
        </mxCell>
        <mxCell id="VhMm4jI5atdPhifG3HGS-2" value="" style="edgeStyle=orthogonalEdgeStyle;rounded=0;orthogonalLoop=1;jettySize=auto;html=1;" edge="1" parent="1" source="VhMm4jI5atdPhifG3HGS-1" target="60e70716793133e9-5">
          <mxGeometry relative="1" as="geometry" />
        </mxCell>
        <mxCell id="VhMm4jI5atdPhifG3HGS-1" value="&lt;font style=&quot;font-size: 24px;&quot; face=&quot;Comic Sans MS&quot;&gt;&lt;b style=&quot;&quot;&gt;Xe vào&lt;/b&gt;&lt;/font&gt;" style="ellipse;whiteSpace=wrap;html=1;fillColor=#d5e8d4;strokeColor=#82b366;" vertex="1" parent="1">
          <mxGeometry x="85" y="40" width="120" height="80" as="geometry" />
        </mxCell>
        <mxCell id="VhMm4jI5atdPhifG3HGS-9" value="" style="edgeStyle=orthogonalEdgeStyle;rounded=0;orthogonalLoop=1;jettySize=auto;html=1;fontFamily=Times New Roman;fontSize=8;fontColor=default;entryX=0.5;entryY=0;entryDx=0;entryDy=0;" edge="1" parent="1" source="VhMm4jI5atdPhifG3HGS-7" target="60e70716793133e9-16">
          <mxGeometry relative="1" as="geometry" />
        </mxCell>
        <mxCell id="VhMm4jI5atdPhifG3HGS-12" value="" style="edgeStyle=orthogonalEdgeStyle;rounded=0;orthogonalLoop=1;jettySize=auto;html=1;fontFamily=Times New Roman;fontSize=8;fontColor=default;startArrow=none;" edge="1" parent="1" source="VhMm4jI5atdPhifG3HGS-13" target="VhMm4jI5atdPhifG3HGS-11">
          <mxGeometry relative="1" as="geometry" />
        </mxCell>
        <mxCell id="VhMm4jI5atdPhifG3HGS-7" value="&lt;font face=&quot;Times New Roman&quot;&gt;&lt;span style=&quot;color: rgb(71, 77, 102); font-size: 14px; background-color: rgb(244, 246, 250);&quot;&gt;Barrier đầu đóng lại.&lt;br&gt;Camera chụp biển số,&amp;nbsp;&lt;/span&gt;&lt;span style=&quot;color: rgb(71, 77, 102); font-size: 14px; background-color: rgb(244, 246, 250);&quot;&gt;kiểm tra trên server&lt;/span&gt;&lt;/font&gt;" style="rounded=0;whiteSpace=wrap;html=1;shadow=1;labelBackgroundColor=none;strokeColor=default;strokeWidth=1;fontFamily=Verdana;fontSize=8;fontColor=default;fillColor=default;" vertex="1" parent="1">
          <mxGeometry x="70" y="410" width="150" height="60" as="geometry" />
        </mxCell>
        <mxCell id="VhMm4jI5atdPhifG3HGS-8" value="&lt;font style=&quot;font-size: 12px;&quot;&gt;Biển số đã được đăng ký trên server quản lý&lt;/font&gt;" style="text;html=1;align=center;verticalAlign=middle;whiteSpace=wrap;rounded=0;shadow=0;labelBackgroundColor=none;strokeWidth=1;fontFamily=Times New Roman;fontSize=8;rotation=0;fillColor=#FFFFFF;glass=0;" vertex="1" parent="1">
          <mxGeometry x="87.5" y="490" width="115" height="30" as="geometry" />
        </mxCell>
        <mxCell id="VhMm4jI5atdPhifG3HGS-15" value="" style="edgeStyle=orthogonalEdgeStyle;rounded=0;orthogonalLoop=1;jettySize=auto;html=1;fontFamily=Times New Roman;fontSize=14;fontColor=default;" edge="1" parent="1" source="VhMm4jI5atdPhifG3HGS-11" target="VhMm4jI5atdPhifG3HGS-14">
          <mxGeometry relative="1" as="geometry" />
        </mxCell>
        <mxCell id="VhMm4jI5atdPhifG3HGS-11" value="&lt;font style=&quot;font-size: 14px;&quot; face=&quot;Times New Roman&quot;&gt;Barrier hướng tới phòng bảo vệ mở ra&lt;/font&gt;" style="whiteSpace=wrap;html=1;fontSize=8;fontFamily=Verdana;rounded=0;shadow=1;labelBackgroundColor=none;strokeWidth=1;" vertex="1" parent="1">
          <mxGeometry x="340" y="410" width="120" height="60" as="geometry" />
        </mxCell>
        <mxCell id="VhMm4jI5atdPhifG3HGS-18" style="edgeStyle=orthogonalEdgeStyle;rounded=0;orthogonalLoop=1;jettySize=auto;html=1;fontFamily=Times New Roman;fontSize=14;fontColor=default;" edge="1" parent="1" source="VhMm4jI5atdPhifG3HGS-14">
          <mxGeometry relative="1" as="geometry">
            <mxPoint x="150" y="140" as="targetPoint" />
            <Array as="points">
              <mxPoint x="500" y="530" />
              <mxPoint x="500" y="140" />
            </Array>
          </mxGeometry>
        </mxCell>
        <mxCell id="VhMm4jI5atdPhifG3HGS-21" value="" style="edgeStyle=orthogonalEdgeStyle;rounded=0;orthogonalLoop=1;jettySize=auto;html=1;fontFamily=Comic Sans MS;fontSize=12;fontColor=#33FF33;" edge="1" parent="1" source="VhMm4jI5atdPhifG3HGS-14" target="VhMm4jI5atdPhifG3HGS-20">
          <mxGeometry relative="1" as="geometry" />
        </mxCell>
        <mxCell id="VhMm4jI5atdPhifG3HGS-14" value="Bảo vệ giải quyết vấn đề phát sinh." style="rounded=1;whiteSpace=wrap;html=1;shadow=1;labelBackgroundColor=none;strokeColor=default;strokeWidth=1;fontFamily=Times New Roman;fontSize=14;fontColor=default;fillColor=default;" vertex="1" parent="1">
          <mxGeometry x="340" y="500" width="120" height="60" as="geometry" />
        </mxCell>
        <mxCell id="VhMm4jI5atdPhifG3HGS-19" value="&lt;font color=&quot;#33ff33&quot; style=&quot;font-size: 12px;&quot;&gt;&lt;b&gt;Dân chung cư&lt;/b&gt;&lt;/font&gt;" style="text;html=1;align=center;verticalAlign=middle;whiteSpace=wrap;rounded=0;shadow=0;labelBackgroundColor=none;strokeWidth=1;fontFamily=Times New Roman;fontSize=8;rotation=0;fillColor=#FFFFFF;glass=0;" vertex="1" parent="1">
          <mxGeometry x="460" y="475" width="80" height="20" as="geometry" />
        </mxCell>
        <mxCell id="VhMm4jI5atdPhifG3HGS-20" value="&lt;font style=&quot;font-size: 24px;&quot; face=&quot;Comic Sans MS&quot;&gt;&lt;b&gt;Xe ra&lt;/b&gt;&lt;/font&gt;" style="ellipse;whiteSpace=wrap;html=1;fontSize=14;fontFamily=Times New Roman;rounded=1;shadow=1;labelBackgroundColor=none;strokeWidth=1;fillColor=#f8cecc;strokeColor=#b85450;" vertex="1" parent="1">
          <mxGeometry x="340" y="610" width="120" height="80" as="geometry" />
        </mxCell>
        <mxCell id="VhMm4jI5atdPhifG3HGS-22" value="&lt;font color=&quot;#ff0000&quot; style=&quot;font-size: 12px;&quot;&gt;&lt;b style=&quot;&quot;&gt;Khách vãng lai&lt;/b&gt;&lt;/font&gt;" style="text;html=1;align=center;verticalAlign=middle;whiteSpace=wrap;rounded=0;shadow=0;labelBackgroundColor=none;strokeWidth=1;fontFamily=Times New Roman;fontSize=8;rotation=0;fillColor=#FFFFFF;glass=0;" vertex="1" parent="1">
          <mxGeometry x="360" y="570" width="80" height="20" as="geometry" />
        </mxCell>
        <mxCell id="VhMm4jI5atdPhifG3HGS-23" value="&lt;font color=&quot;#33ff33&quot; style=&quot;font-size: 14px;&quot; face=&quot;Garamond&quot;&gt;Yes&lt;/font&gt;" style="edgeStyle=orthogonalEdgeStyle;rounded=0;html=1;labelBackgroundColor=none;startSize=5;endArrow=classicThin;endFill=1;endSize=5;jettySize=auto;orthogonalLoop=1;strokeWidth=1;fontFamily=Verdana;fontSize=8;entryX=0;entryY=0.5;entryDx=0;entryDy=0;" edge="1" parent="1" source="VhMm4jI5atdPhifG3HGS-25" target="VhMm4jI5atdPhifG3HGS-29">
          <mxGeometry x="-0.7778" y="10" relative="1" as="geometry">
            <mxPoint as="offset" />
            <mxPoint x="920" y="235" as="targetPoint" />
          </mxGeometry>
        </mxCell>
        <mxCell id="VhMm4jI5atdPhifG3HGS-24" value="&lt;font color=&quot;#ff0000&quot; style=&quot;font-size: 14px;&quot; face=&quot;Garamond&quot;&gt;No&lt;/font&gt;" style="edgeStyle=orthogonalEdgeStyle;rounded=0;html=1;labelBackgroundColor=none;startSize=5;endArrow=classicThin;endFill=1;endSize=5;jettySize=auto;orthogonalLoop=1;strokeWidth=1;fontFamily=Verdana;fontSize=8;entryX=0.5;entryY=0;entryDx=0;entryDy=0;" edge="1" parent="1" source="VhMm4jI5atdPhifG3HGS-25" target="VhMm4jI5atdPhifG3HGS-27">
          <mxGeometry x="-0.7497" y="15" relative="1" as="geometry">
            <mxPoint as="offset" />
            <Array as="points">
              <mxPoint x="725" y="315" />
            </Array>
          </mxGeometry>
        </mxCell>
        <mxCell id="VhMm4jI5atdPhifG3HGS-25" value="&lt;font style=&quot;font-size: 14px;&quot; face=&quot;Times New Roman&quot;&gt;&lt;span style=&quot;border-color: var(--border-color); color: rgb(71, 77, 102);&quot;&gt;Có xe đang check-out.&lt;/span&gt;&lt;/font&gt;" style="rhombus;whiteSpace=wrap;html=1;rounded=0;shadow=1;labelBackgroundColor=none;strokeWidth=1;fontFamily=Verdana;fontSize=8;align=center;" vertex="1" parent="1">
          <mxGeometry x="640" y="165" width="170" height="75" as="geometry" />
        </mxCell>
        <mxCell id="VhMm4jI5atdPhifG3HGS-26" style="edgeStyle=orthogonalEdgeStyle;rounded=0;html=1;labelBackgroundColor=none;startSize=5;endArrow=classicThin;endFill=1;endSize=5;jettySize=auto;orthogonalLoop=1;strokeWidth=1;fontFamily=Verdana;fontSize=8;entryX=0.5;entryY=0;entryDx=0;entryDy=0;" edge="1" parent="1" source="VhMm4jI5atdPhifG3HGS-27" target="VhMm4jI5atdPhifG3HGS-35">
          <mxGeometry relative="1" as="geometry">
            <mxPoint x="725.0000000000001" y="405" as="targetPoint" />
          </mxGeometry>
        </mxCell>
        <mxCell id="VhMm4jI5atdPhifG3HGS-27" value="&lt;font face=&quot;Times New Roman&quot;&gt;&lt;span style=&quot;color: rgb(71, 77, 102); font-size: 14px; background-color: rgb(244, 246, 250);&quot;&gt;Barrier đầu mở.&lt;/span&gt;&lt;br style=&quot;color: rgb(71, 77, 102); font-size: 14px; background-color: rgb(244, 246, 250);&quot;&gt;&lt;span style=&quot;color: rgb(71, 77, 102); font-size: 14px; background-color: rgb(244, 246, 250);&quot;&gt;Xe tiến vào vị trí check-out.&lt;/span&gt;&lt;/font&gt;" style="whiteSpace=wrap;html=1;rounded=0;shadow=1;labelBackgroundColor=none;strokeWidth=1;fontFamily=Verdana;fontSize=8;align=center;" vertex="1" parent="1">
          <mxGeometry x="610" y="270" width="230" height="50" as="geometry" />
        </mxCell>
        <mxCell id="VhMm4jI5atdPhifG3HGS-28" style="edgeStyle=orthogonalEdgeStyle;rounded=0;orthogonalLoop=1;jettySize=auto;html=1;fontFamily=Garamond;fontSize=14;fontColor=#33FF33;exitX=0.5;exitY=0;exitDx=0;exitDy=0;" edge="1" parent="1" source="VhMm4jI5atdPhifG3HGS-29">
          <mxGeometry relative="1" as="geometry">
            <mxPoint x="730" y="145" as="targetPoint" />
            <Array as="points">
              <mxPoint x="950" y="145" />
            </Array>
          </mxGeometry>
        </mxCell>
        <mxCell id="VhMm4jI5atdPhifG3HGS-29" value="&lt;font face=&quot;Times New Roman&quot;&gt;&lt;span style=&quot;color: rgb(71, 77, 102); font-size: 14px; background-color: rgb(244, 246, 250);&quot;&gt;Barrier đầu đóng lại.&lt;/span&gt;&lt;br style=&quot;color: rgb(71, 77, 102); font-size: 14px; background-color: rgb(244, 246, 250);&quot;&gt;&lt;span style=&quot;color: rgb(71, 77, 102); font-size: 14px; background-color: rgb(244, 246, 250);&quot;&gt;Xe dừng đợi&lt;/span&gt;&lt;/font&gt;" style="whiteSpace=wrap;html=1;rounded=0;shadow=1;labelBackgroundColor=none;strokeWidth=1;fontFamily=Verdana;fontSize=8;align=center;" vertex="1" parent="1">
          <mxGeometry x="880" y="173.75" width="120" height="57.5" as="geometry" />
        </mxCell>
        <mxCell id="VhMm4jI5atdPhifG3HGS-33" value="" style="edgeStyle=orthogonalEdgeStyle;rounded=0;orthogonalLoop=1;jettySize=auto;html=1;fontFamily=Times New Roman;fontSize=8;fontColor=default;entryX=0.5;entryY=0;entryDx=0;entryDy=0;" edge="1" parent="1" source="VhMm4jI5atdPhifG3HGS-35" target="VhMm4jI5atdPhifG3HGS-44">
          <mxGeometry relative="1" as="geometry">
            <mxPoint x="725" y="495" as="targetPoint" />
          </mxGeometry>
        </mxCell>
        <mxCell id="VhMm4jI5atdPhifG3HGS-34" value="" style="edgeStyle=orthogonalEdgeStyle;rounded=0;orthogonalLoop=1;jettySize=auto;html=1;fontFamily=Times New Roman;fontSize=8;fontColor=default;" edge="1" parent="1" source="VhMm4jI5atdPhifG3HGS-35" target="VhMm4jI5atdPhifG3HGS-38">
          <mxGeometry relative="1" as="geometry" />
        </mxCell>
        <mxCell id="VhMm4jI5atdPhifG3HGS-35" value="&lt;font face=&quot;Times New Roman&quot;&gt;&lt;span style=&quot;color: rgb(71, 77, 102); font-size: 14px; background-color: rgb(244, 246, 250);&quot;&gt;Barrier đầu đóng lại.&lt;br&gt;Camera chụp biển số,&amp;nbsp;&lt;/span&gt;&lt;span style=&quot;color: rgb(71, 77, 102); font-size: 14px; background-color: rgb(244, 246, 250);&quot;&gt;kiểm tra trên server&lt;/span&gt;&lt;/font&gt;" style="rounded=0;whiteSpace=wrap;html=1;shadow=1;labelBackgroundColor=none;strokeColor=default;strokeWidth=1;fontFamily=Verdana;fontSize=8;fontColor=default;fillColor=default;" vertex="1" parent="1">
          <mxGeometry x="620" y="350" width="210" height="60" as="geometry" />
        </mxCell>
        <mxCell id="VhMm4jI5atdPhifG3HGS-36" value="&lt;span style=&quot;font-size: 12px;&quot;&gt;Đọc biển số thành công&lt;/span&gt;" style="text;html=1;align=center;verticalAlign=middle;whiteSpace=wrap;rounded=0;shadow=0;labelBackgroundColor=none;strokeWidth=1;fontFamily=Times New Roman;fontSize=8;rotation=0;fillColor=#FFFFFF;glass=0;" vertex="1" parent="1">
          <mxGeometry x="667.5" y="425" width="115" height="30" as="geometry" />
        </mxCell>
        <mxCell id="VhMm4jI5atdPhifG3HGS-37" value="" style="edgeStyle=orthogonalEdgeStyle;rounded=0;orthogonalLoop=1;jettySize=auto;html=1;fontFamily=Times New Roman;fontSize=14;fontColor=default;" edge="1" parent="1" source="VhMm4jI5atdPhifG3HGS-38" target="VhMm4jI5atdPhifG3HGS-42">
          <mxGeometry relative="1" as="geometry" />
        </mxCell>
        <mxCell id="VhMm4jI5atdPhifG3HGS-38" value="&lt;font style=&quot;font-size: 14px;&quot; face=&quot;Times New Roman&quot;&gt;Barrier hướng tới phòng bảo vệ mở ra&lt;/font&gt;" style="whiteSpace=wrap;html=1;fontSize=8;fontFamily=Verdana;rounded=0;shadow=1;labelBackgroundColor=none;strokeWidth=1;" vertex="1" parent="1">
          <mxGeometry x="950" y="350" width="120" height="60" as="geometry" />
        </mxCell>
        <mxCell id="VhMm4jI5atdPhifG3HGS-39" value="&lt;span style=&quot;font-size: 12px;&quot;&gt;Đọc biển số thất bại.&lt;br&gt;Biển số chưa từng check-in&lt;br&gt;&lt;/span&gt;" style="text;html=1;align=center;verticalAlign=middle;whiteSpace=wrap;rounded=0;shadow=0;labelBackgroundColor=none;strokeWidth=1;fontFamily=Times New Roman;fontSize=8;rotation=0;fillColor=#FFFFFF;glass=0;" vertex="1" parent="1">
          <mxGeometry x="850" y="350" width="70" height="65" as="geometry" />
        </mxCell>
        <mxCell id="VhMm4jI5atdPhifG3HGS-52" style="edgeStyle=orthogonalEdgeStyle;rounded=0;orthogonalLoop=1;jettySize=auto;html=1;fontFamily=Times New Roman;fontSize=14;fontColor=#FF0000;" edge="1" parent="1" source="VhMm4jI5atdPhifG3HGS-42">
          <mxGeometry relative="1" as="geometry">
            <mxPoint x="730" y="490" as="targetPoint" />
          </mxGeometry>
        </mxCell>
        <mxCell id="VhMm4jI5atdPhifG3HGS-42" value="Bảo vệ giải quyết vấn đề phát sinh." style="rounded=1;whiteSpace=wrap;html=1;shadow=1;labelBackgroundColor=none;strokeColor=default;strokeWidth=1;fontFamily=Times New Roman;fontSize=14;fontColor=default;fillColor=default;" vertex="1" parent="1">
          <mxGeometry x="950" y="460" width="120" height="60" as="geometry" />
        </mxCell>
        <mxCell id="VhMm4jI5atdPhifG3HGS-44" value="&lt;font style=&quot;font-size: 24px;&quot; face=&quot;Comic Sans MS&quot;&gt;&lt;b&gt;Xe ra&lt;/b&gt;&lt;/font&gt;" style="ellipse;whiteSpace=wrap;html=1;fontSize=14;fontFamily=Times New Roman;rounded=1;shadow=1;labelBackgroundColor=none;strokeWidth=1;fillColor=#f8cecc;strokeColor=#b85450;" vertex="1" parent="1">
          <mxGeometry x="665" y="520" width="120" height="80" as="geometry" />
        </mxCell>
        <mxCell id="VhMm4jI5atdPhifG3HGS-49" value="" style="edgeStyle=orthogonalEdgeStyle;rounded=0;orthogonalLoop=1;jettySize=auto;html=1;fontFamily=Comic Sans MS;fontSize=24;fontColor=#FF0000;" edge="1" parent="1" source="VhMm4jI5atdPhifG3HGS-47" target="VhMm4jI5atdPhifG3HGS-25">
          <mxGeometry relative="1" as="geometry" />
        </mxCell>
        <mxCell id="VhMm4jI5atdPhifG3HGS-47" value="&lt;font style=&quot;font-size: 24px;&quot; face=&quot;Comic Sans MS&quot;&gt;&lt;b&gt;Xe vào&lt;/b&gt;&lt;/font&gt;" style="ellipse;whiteSpace=wrap;html=1;fontSize=14;fontFamily=Times New Roman;rounded=1;shadow=1;labelBackgroundColor=none;strokeWidth=1;fillColor=#fff2cc;strokeColor=#d6b656;" vertex="1" parent="1">
          <mxGeometry x="665" y="30" width="120" height="90" as="geometry" />
        </mxCell>
        <mxCell id="VhMm4jI5atdPhifG3HGS-13" value="&lt;font style=&quot;font-size: 12px;&quot;&gt;Biển số chưa được đăng ký trên server quản lý&lt;/font&gt;" style="text;html=1;align=center;verticalAlign=middle;whiteSpace=wrap;rounded=0;shadow=0;labelBackgroundColor=none;strokeWidth=1;fontFamily=Times New Roman;fontSize=8;rotation=0;fillColor=#FFFFFF;glass=0;" vertex="1" parent="1">
          <mxGeometry x="240" y="425" width="70" height="30" as="geometry" />
        </mxCell>
        <mxCell id="VhMm4jI5atdPhifG3HGS-50" value="" style="edgeStyle=orthogonalEdgeStyle;rounded=0;orthogonalLoop=1;jettySize=auto;html=1;fontFamily=Times New Roman;fontSize=8;fontColor=default;endArrow=none;" edge="1" parent="1" source="VhMm4jI5atdPhifG3HGS-7" target="VhMm4jI5atdPhifG3HGS-13">
          <mxGeometry relative="1" as="geometry">
            <mxPoint x="250" y="440" as="sourcePoint" />
            <mxPoint x="370" y="440" as="targetPoint" />
          </mxGeometry>
        </mxCell>
      </root>
    </mxGraphModel>
  </diagram>
</mxfile>
